# xmcd
#
# Track frame offsets: 
#        150
#        20600
#        39523
#        65156
#
# Disc length: 1145 seconds
#
# Revision: 0
# Processed by: cddbd v1.5.2PL0 Copyright (c) Steve Scherf et al.
# Submitted via: ExactAudioCopy v1.0b3
#
DISCID=32047704
DTITLE=The Mavins - The Mavins
DYEAR=2012
DGENRE=Country
TTITLE0=I Can't Wait
TTITLE1=Mexico
TTITLE2=Mathematics
TTITLE3=Already Won
EXTD=
EXTT0=
EXTT1=
EXTT2=
EXTT3=
PLAYORDER=
